<svg width="125" height="125" viewBox="0 0 125 125" fill="none" xmlns="http://www.w3.org/2000/svg">
<path d="M15.6247 62.5C9.89551 62.5 5.20801 57.8125 5.20801 52.0833V26.0417C5.20801 20.3125 9.89551 15.625 15.6247 15.625H57.2913C63.0205 15.625 67.708 20.3125 67.708 26.0417V52.0833C67.708 57.8125 63.0205 62.5 57.2913 62.5H46.8747V78.125L31.2497 62.5H15.6247ZM109.375 93.75C115.104 93.75 119.791 89.0625 119.791 83.3333V57.2917C119.791 51.5625 115.104 46.875 109.375 46.875H78.1247V52.0833C78.1247 63.5417 68.7497 72.9167 57.2913 72.9167V83.3333C57.2913 89.0625 61.9788 93.75 67.708 93.75H78.1247V109.375L93.7497 93.75H109.375Z" fill="#2B2B2B"/>
</svg>
