<svg width="25" height="25" viewBox="0 0 25 25" fill="none" xmlns="http://www.w3.org/2000/svg">
<g clip-path="url(#clip0_190_360)">
<path d="M24.5 12.5C24.5 5.8726 19.1274 0.500027 12.5 0.500027C5.87258 0.500027 0.5 5.8726 0.5 12.5C0.5 18.4896 4.88823 23.454 10.625 24.3542V15.9688H7.57813V12.5H10.625V9.85628C10.625 6.84878 12.4165 5.18753 15.1576 5.18753C16.4705 5.18753 17.8438 5.4219 17.8438 5.4219V8.37503H16.3306C14.8399 8.37503 14.375 9.30003 14.375 10.249V12.5H17.7031L17.1711 15.9688H14.375V24.3542C20.1118 23.454 24.5 18.4896 24.5 12.5Z" fill="#1877F2"/>
<path d="M17.1711 15.9688L17.7031 12.5H14.375V10.249C14.375 9.30001 14.8399 8.375 16.3306 8.375H17.8438V5.42188C17.8438 5.42188 16.4705 5.1875 15.1576 5.1875C12.4165 5.1875 10.625 6.84875 10.625 9.85625V12.5H7.57812V15.9688H10.625V24.3542C11.2359 24.4501 11.8621 24.5 12.5 24.5C13.1379 24.5 13.7641 24.4501 14.375 24.3542V15.9688H17.1711Z" fill="white"/>
</g>
<defs>
<clipPath id="clip0_190_360">
<rect width="24" height="24" fill="white" transform="translate(0.5 0.5)"/>
</clipPath>
</defs>
</svg>
